<?xml version="1.0" encoding="utf-8"?>
<!-- Generator: Adobe Illustrator 27.4.0, SVG Export Plug-In . SVG Version: 6.00 Build 0)  -->
<svg version="1.1" id="Layer_1" xmlns="http://www.w3.org/2000/svg" xmlns:xlink="http://www.w3.org/1999/xlink" x="0px" y="0px"
     viewBox="0 0 512 512" style="enable-background:new 0 0 512 512;" xml:space="preserve">
<style type="text/css">
	.st0{fill:#FFFFFF;}
</style>
    <path d="M64,0C28.7,0,0,28.7,0,64v288c0,35.3,28.7,64,64,64h51v80c0,6.1,3.4,11.6,8.8,14.3c5.4,2.7,11.9,2.1,16.8-1.5L264.3,416H448
	c35.3,0,64-28.7,64-64V64c0-35.3-28.7-64-64-64H64z"/>
    <path class="st0" d="M135.4,224.1l52.5-168.6c1.5-11.8,11.6-20.7,23.5-20.7h73c11.1,0,20.1,9,20.1,20.1c0,2.4,0.5,4.8-0.4,7
	l-43.5,111.6h104.8c15,0,22.6,12.1,22.6,27.2c0,5.5-1.7,10.8-4.7,15.3L259.6,374.7c-4.3,6.4-11.6,10.2-19.1,10.2h5.3
	c-11.6,0-21.1-9.4-21.1-21.1c0-1.7,0.2-3.4,0.6-5.1l40.3-111H158.1C145,247.8,135.4,237.2,135.4,224.1z"/>
</svg>
